<svg width="127" height="29" viewBox="0 0 127 29" fill="none" xmlns="http://www.w3.org/2000/svg">
<g clip-path="url(#clip0_675_7418)">
<path d="M29.2273 25.9772H29.2772L29.1773 26.7142H26.3854V26.6705C26.6602 26.4623 26.9225 26.2375 27.1724 25.996C27.4222 25.7503 27.6637 25.4796 27.8969 25.184C28.1301 24.8883 28.3112 24.5761 28.4403 24.2471C28.5735 23.9181 28.6318 23.6038 28.6152 23.304C28.5985 23.025 28.5256 22.796 28.3966 22.6169C28.2716 22.4379 28.0843 22.3463 27.8344 22.3421C27.6012 22.3379 27.3785 22.4566 27.1661 22.6981C26.9579 22.9355 26.8247 23.254 26.7664 23.6537H26.7227L26.4666 22.9355C26.9371 22.5274 27.3847 22.3088 27.8094 22.2796C28.1384 22.2588 28.4236 22.3338 28.6651 22.5045C28.9108 22.6752 29.0628 22.9001 29.1211 23.1791C29.2252 23.6787 29.1023 24.1472 28.7526 24.5844C28.407 25.0216 27.8136 25.5775 26.9725 26.252H28.7276C28.9816 26.252 29.1481 26.1604 29.2273 25.9772ZM31.8907 22.2796C32.3405 22.2796 32.736 22.5003 33.0775 22.9417C33.4231 23.3789 33.5959 23.9036 33.5959 24.5157C33.5959 25.1652 33.4314 25.7003 33.1025 26.1209C32.7735 26.5414 32.3696 26.7517 31.8907 26.7517C31.441 26.7517 31.0434 26.531 30.6978 26.0896C30.3563 25.6483 30.1856 25.1236 30.1856 24.5157C30.1856 23.8661 30.3501 23.331 30.679 22.9105C31.008 22.4899 31.4119 22.2796 31.8907 22.2796ZM32.3467 26.6018C32.5965 26.506 32.7902 26.3187 32.9276 26.0397C33.065 25.7607 33.1358 25.4484 33.1399 25.1028C33.1441 24.753 33.1087 24.3866 33.0337 24.0035C32.9047 23.4247 32.6965 22.9833 32.4092 22.6794C32.1218 22.3712 31.795 22.288 31.4285 22.4295C31.1829 22.5253 30.9913 22.7127 30.8539 22.9917C30.7165 23.2707 30.6457 23.583 30.6416 23.9286C30.6374 24.2742 30.6728 24.6385 30.7477 25.0216C30.8768 25.6004 31.085 26.0438 31.3723 26.352C31.6596 26.6601 31.9844 26.7434 32.3467 26.6018ZM37.2242 25.9772H37.2742L37.1742 26.7142H34.3823V26.6705C34.6571 26.4623 34.9195 26.2375 35.1693 25.996C35.4191 25.7503 35.6607 25.4796 35.8938 25.184C36.127 24.8883 36.3081 24.5761 36.4372 24.2471C36.5705 23.9181 36.6288 23.6038 36.6121 23.304C36.5955 23.025 36.5226 22.796 36.3935 22.6169C36.2686 22.4379 36.0812 22.3463 35.8314 22.3421C35.5982 22.3379 35.3754 22.4566 35.1631 22.6981C34.9549 22.9355 34.8216 23.254 34.7633 23.6537H34.7196L34.4635 22.9355C34.934 22.5274 35.3817 22.3088 35.8064 22.2796C36.1353 22.2588 36.4206 22.3338 36.6621 22.5045C36.9077 22.6752 37.0597 22.9001 37.118 23.1791C37.2221 23.6787 37.0993 24.1472 36.7495 24.5844C36.4039 25.0216 35.8106 25.5775 34.9694 26.252H36.7245C36.9785 26.252 37.1451 26.1604 37.2242 25.9772ZM39.6551 24.2908C40.1381 24.1576 40.5566 24.2221 40.9106 24.4844C41.2645 24.7468 41.404 25.1174 41.329 25.5962C41.2832 25.8919 41.1167 26.1583 40.8294 26.3957C40.5462 26.633 40.1944 26.7517 39.7738 26.7517C39.4865 26.7517 39.2054 26.6934 38.9306 26.5768C38.66 26.4602 38.4309 26.3103 38.2436 26.1271L38.4934 25.3464H38.5434C38.6017 25.7461 38.7453 26.0667 38.9743 26.3082C39.2075 26.5498 39.4636 26.6747 39.7426 26.683C40.0882 26.6955 40.3505 26.5997 40.5296 26.3957C40.7086 26.1917 40.8127 25.9356 40.8419 25.6274C40.8877 25.1528 40.7731 24.7905 40.4983 24.5407C40.2277 24.2867 39.8508 24.2471 39.3678 24.422L39.3491 24.3783C39.728 24.2409 40.0195 24.0618 40.2235 23.8411C40.4275 23.6163 40.5233 23.3643 40.5108 23.0854C40.5025 22.848 40.4421 22.6648 40.3297 22.5357C40.2173 22.4066 40.0653 22.3421 39.8737 22.3421C39.5948 22.3421 39.3512 22.4441 39.143 22.6481C38.9348 22.848 38.8015 23.1478 38.7432 23.5476H38.6995L38.4434 22.898C38.6266 22.7189 38.8515 22.5711 39.118 22.4545C39.3845 22.3379 39.6468 22.2796 39.905 22.2796C40.2381 22.2796 40.5004 22.3546 40.692 22.5045C40.8877 22.6544 40.9855 22.8584 40.9855 23.1166C40.9855 23.2124 40.9709 23.304 40.9418 23.3914C40.9126 23.4747 40.8814 23.5476 40.8481 23.61C40.819 23.6683 40.7648 23.7287 40.6857 23.7911C40.6108 23.8536 40.5525 23.9015 40.5108 23.9348C40.4733 23.964 40.3984 24.0035 40.286 24.0535C40.1777 24.0993 40.1069 24.1284 40.0736 24.1409C40.0445 24.1534 39.9674 24.1826 39.8425 24.2284C39.7218 24.27 39.6593 24.2908 39.6551 24.2908ZM42.3526 26.1708C42.4192 26.1042 42.5004 26.0709 42.5962 26.0709C42.6919 26.0709 42.771 26.1042 42.8335 26.1708C42.9001 26.2333 42.9334 26.3124 42.9334 26.4082C42.9334 26.504 42.9001 26.5852 42.8335 26.6518C42.7669 26.7184 42.6878 26.7517 42.5962 26.7517C42.5004 26.7517 42.4192 26.7184 42.3526 26.6518C42.2859 26.5852 42.2526 26.504 42.2526 26.4082C42.2526 26.3166 42.2859 26.2375 42.3526 26.1708ZM44.6726 26.302C44.6726 26.4894 44.7205 26.6122 44.8163 26.6705V26.7142H44.0543V26.6705C44.1501 26.6164 44.1979 26.4935 44.1979 26.302V23.1603C44.1979 22.9604 44.1688 22.848 44.1105 22.823C44.0522 22.7981 43.9273 22.8314 43.7358 22.923L43.717 22.8855L44.6726 22.3421V26.302ZM46.6125 26.302C46.6125 26.4894 46.6604 26.6122 46.7562 26.6705V26.7142H45.9942V26.6705C46.0899 26.6164 46.1378 26.4935 46.1378 26.302V23.1603C46.1378 22.9604 46.1087 22.848 46.0504 22.823C45.9921 22.7981 45.8672 22.8314 45.6756 22.923L45.6569 22.8855L46.6125 22.3421V26.302ZM47.8856 26.1708C47.9522 26.1042 48.0334 26.0709 48.1292 26.0709C48.2249 26.0709 48.304 26.1042 48.3665 26.1708C48.4331 26.2333 48.4664 26.3124 48.4664 26.4082C48.4664 26.504 48.4331 26.5852 48.3665 26.6518C48.2999 26.7184 48.2208 26.7517 48.1292 26.7517C48.0334 26.7517 47.9522 26.7184 47.8856 26.6518C47.8189 26.5852 47.7856 26.504 47.7856 26.4082C47.7856 26.3166 47.8189 26.2375 47.8856 26.1708ZM50.2056 26.302C50.2056 26.4894 50.2535 26.6122 50.3493 26.6705V26.7142H49.5873V26.6705C49.683 26.6164 49.7309 26.4935 49.7309 26.302V23.1603C49.7309 22.9604 49.7018 22.848 49.6435 22.823C49.5852 22.7981 49.4603 22.8314 49.2687 22.923L49.25 22.8855L50.2056 22.3421V26.302ZM52.1455 26.302C52.1455 26.4894 52.1934 26.6122 52.2892 26.6705V26.7142H51.5272V26.6705C51.6229 26.6164 51.6708 26.4935 51.6708 26.302V23.1603C51.6708 22.9604 51.6417 22.848 51.5834 22.823C51.5251 22.7981 51.4002 22.8314 51.2086 22.923L51.1899 22.8855L52.1455 22.3421V26.302Z" fill="black"/>
<path d="M31.8235 17.9615C31.4991 18.0261 31.1748 18.0476 30.8287 18.0153C30.4935 17.983 30.1583 17.897 29.8339 17.7356C29.5312 17.585 29.2933 17.4021 29.1203 17.1762C28.9473 16.9502 28.8391 16.7028 28.7851 16.4338C28.6769 15.939 28.7418 15.4118 28.9689 14.8524C29.196 14.2929 29.4987 13.7443 29.888 13.2171C30.2773 12.69 30.6774 12.2489 31.0666 11.8938C31.218 11.754 31.4235 11.6356 31.6613 11.5281C31.8992 11.4205 32.1479 11.3452 32.375 11.3021L32.6345 11.2483C32.721 11.2268 32.7967 11.2268 32.8616 11.2483C33.2617 11.2699 33.5753 11.3667 33.8023 11.5388C34.0294 11.7109 34.17 11.9369 34.224 12.2058C34.3105 12.6146 34.2457 12.9804 34.0294 13.3032C33.8131 13.6259 33.532 13.9164 33.1644 14.1638C32.7967 14.4113 32.4183 14.6264 32.029 14.7986C31.6397 14.9707 31.3045 15.0998 31.0126 15.1859C30.9152 15.2182 30.8179 15.2504 30.7206 15.2719L30.4287 15.3365C30.3313 15.358 30.2232 15.3795 30.1151 15.3903C30.007 15.401 29.9096 15.4118 29.8339 15.4118C29.7691 15.5947 29.715 15.7668 29.6717 15.939C29.6285 16.1111 29.6177 16.2725 29.6177 16.4231C29.6177 16.4661 29.6177 16.5091 29.6177 16.5522L29.6501 16.6813C29.7042 16.961 29.8772 17.1762 30.1475 17.3375C30.4287 17.4989 30.8504 17.5204 31.4343 17.4021C32.0182 17.2837 32.6021 17.0255 33.186 16.649C33.7699 16.2725 34.343 15.8099 34.8944 15.2827C35.4459 14.7555 35.9541 14.2069 36.4407 13.6474C36.9273 13.088 37.349 12.5609 37.7166 12.0767C37.7815 12.0229 37.8356 11.9799 37.8788 11.9799C38.0086 11.9476 38.0843 12.0014 38.1167 12.109C38.1275 12.1843 38.1167 12.2596 38.0735 12.3457C37.9653 12.6146 37.7491 12.9481 37.4355 13.357C37.1219 13.7658 36.7651 14.1854 36.3758 14.6157C35.9866 15.046 35.6297 15.4333 35.3053 15.7668C34.9809 16.1003 34.7539 16.3263 34.6241 16.4446C34.2348 16.7566 33.7915 17.0471 33.3049 17.3375C32.8183 17.628 32.3101 17.8217 31.7911 17.94L31.8235 17.9615ZM30.0718 14.9492C30.353 14.9169 30.6665 14.8309 30.9909 14.6695C31.1964 14.5834 31.4559 14.4543 31.7479 14.2822C32.0506 14.11 32.3426 13.9164 32.6237 13.6905C32.9048 13.4645 33.1427 13.2171 33.3157 12.9589C33.4887 12.7007 33.5428 12.4318 33.4887 12.1736C33.4455 11.9799 33.2941 11.9154 33.013 11.9799C32.9157 12.0014 32.7859 12.0445 32.6345 12.1198C32.4831 12.1951 32.3101 12.2919 32.1371 12.4425C31.7695 12.7115 31.391 13.0772 31.0126 13.5399C30.6341 14.0025 30.3205 14.4758 30.0718 14.96V14.9492Z" fill="black"/>
<path d="M37.2087 15.3903C37.3385 15.0353 37.5223 14.6372 38.1062 13.6044C38.3225 13.2602 38.5279 12.9267 38.7442 12.6254C39.047 12.2166 39.3822 11.9799 39.6092 11.8186C39.7174 11.754 39.7822 11.711 39.8147 11.7002C39.8363 11.6787 39.9012 11.6572 39.9877 11.6357C40.1499 11.6034 40.204 11.4958 40.1715 11.3237C40.1499 11.2053 40.0742 11.13 39.9661 11.0977C39.8688 11.0547 39.7066 11.0117 39.4903 10.9686C39.274 10.9149 39.1335 10.9041 39.0794 10.9149C38.8523 10.9686 38.6036 11.1515 38.3549 11.485C38.0954 11.8186 37.8467 12.2166 37.5872 12.69C37.3277 13.1633 37.079 13.6582 36.8519 14.1854C36.6248 14.7018 36.4302 15.1859 36.268 15.6378C36.1058 16.0896 35.9977 16.4446 35.9328 16.7028C35.9328 16.7459 35.9004 16.8534 35.8679 17.0148C35.8247 17.1762 35.8247 17.3376 35.8679 17.4882C35.8896 17.585 35.9328 17.6711 35.9977 17.7356C36.0626 17.8002 36.1599 17.8109 36.268 17.7894L36.3761 17.7679C36.4951 17.7141 36.5275 17.6388 36.5708 17.5635C36.5708 17.5635 36.6357 17.4344 36.7113 17.2623C36.787 17.0901 36.8411 17.0041 36.9168 16.875C36.9817 16.7781 37.0682 16.606 37.1006 16.5414C37.1006 16.1004 37.1006 15.8206 37.2196 15.4011L37.2087 15.3903Z" fill="black"/>
<path d="M45.2095 16.7243L46.4962 15.982C44.6688 16.6813 44.4958 16.5092 44.2471 16.4554C44.0201 16.4016 43.8471 16.294 43.6849 16.1111C43.5227 15.9282 43.4037 15.5732 43.3497 15.0245C43.3388 14.9062 43.328 14.7771 43.3172 14.648C43.3172 14.5189 43.2956 14.379 43.2631 14.2499C43.2199 13.9057 43.1226 13.5722 42.9712 13.2279C42.8198 12.8836 42.5171 12.7223 42.0521 12.7223C41.9223 12.7223 41.771 12.7438 41.6196 12.776C41.4682 12.8083 41.2952 12.8729 41.1222 12.9374C40.7329 13.0988 40.3328 13.2494 39.9544 13.4538C39.5543 13.669 39.1758 13.9379 38.7974 14.1854C38.3324 14.4974 37.8891 14.8309 37.4457 15.1859C37.2295 15.358 37.0132 15.5409 36.8078 15.7238C36.6348 15.8744 36.3861 16.0573 36.2671 16.251C36.2671 16.2617 36.2671 16.2725 36.2455 16.294C36.1698 16.4446 36.1374 16.5952 36.1374 16.7566C36.1374 16.8642 36.159 16.9503 36.2131 17.0256C36.2671 17.1009 36.3536 17.1332 36.4726 17.1332H36.5807C36.6348 17.0901 36.6348 17.316 36.6888 17.2515L37.024 16.7136C37.1646 16.4984 37.2295 16.4339 37.3268 16.3263C37.4241 16.2187 37.5431 16.0681 37.6404 15.9928C37.8783 15.7884 38.0837 15.5409 38.3324 15.3365C38.5919 15.1213 38.8622 14.9062 39.1434 14.7125C39.4894 14.4651 39.857 14.2392 40.2247 14.0348C40.5815 13.8411 40.9492 13.6152 41.3709 13.6152C41.6412 13.6152 41.8358 13.7766 41.9764 14.0993C42.0088 14.1746 42.0305 14.2499 42.0629 14.3468C42.0953 14.4328 42.117 14.5296 42.1278 14.6372C42.2035 14.9815 42.2792 15.3473 42.3657 15.7346C42.4522 16.1219 42.6036 16.4554 42.8306 16.7351C43.0577 17.0041 43.4253 17.1439 43.9119 17.1439C44.3985 17.1439 44.8959 17.0363 45.4258 16.8319C45.3501 16.7996 45.2744 16.7781 45.1987 16.7351L45.2095 16.7243Z" fill="black"/>
<path d="M56.098 19.0159C53.7083 16.8427 53.492 15.0461 52.9298 14.0778C52.8216 13.8842 52.8973 13.6798 53.1893 13.5399C53.6867 13.2925 54.1408 13.0343 54.595 12.7546C56.152 11.7756 57.3955 10.4846 58.293 8.89234C58.6498 8.2576 58.8877 7.56907 58.8769 6.81599C58.8661 5.76168 58.1416 5.15921 57.0928 5.33135C56.152 5.49272 55.5465 6.08443 54.9734 6.75144C54.7139 7.05267 54.4652 7.37542 54.1516 7.77348C54.0976 7.54755 54.0651 7.43997 54.0435 7.33239C53.9029 6.74068 53.8056 6.12746 53.6002 5.54651C53.1676 4.27703 51.4808 3.73912 50.5509 4.30931C49.6426 4.86874 49.2317 5.81547 49.1236 6.78372C48.8965 8.96765 49.6102 10.9472 50.8104 12.7653C51.0483 13.1204 51.2754 13.4861 51.5133 13.8519C51.4051 13.938 51.1132 14.0886 50.8969 14.1962C49.0587 15.1322 47.4151 15.5948 45.5012 16.3586C45.4255 16.3909 44.9714 16.52 44.8849 16.4877C44.9065 16.6491 45.1552 16.7244 45.1876 16.8642C45.1984 16.9288 45.7067 16.7244 46.1284 16.5092C46.2257 16.4662 46.3122 16.4231 46.4095 16.3801C47.8909 15.7884 49.3831 15.2397 50.8428 14.6158C51.8485 14.1854 51.6971 14.1747 52.1296 14.9815C52.3783 15.4441 53.1136 16.6921 53.4055 17.1332C53.4055 16.8642 56.0331 19.2526 56.098 19.0051V19.0159ZM52.2485 13.045C51.2862 11.6249 50.5725 10.108 50.2589 8.40822C50.1941 8.07471 50.1616 7.73045 50.1076 7.39694C50.14 6.47172 50.1076 5.61106 50.9942 4.90101C51.3078 4.65357 51.8052 4.65357 52.0755 4.78267C52.6702 5.06239 52.8973 6.06291 52.9189 6.13822C53.0379 6.57931 53.1568 7.18177 53.1893 7.70893C53.2325 8.36518 53.1893 9.02144 53.2109 9.6777C53.2109 9.82831 53.3623 10.0542 53.4488 10.0973C53.6002 10.1618 53.9354 10.065 54.0219 9.92514C54.3895 9.36571 54.6382 8.70945 55.0383 8.18229C55.6222 7.4077 55.9358 6.62234 56.963 5.97684C57.5145 5.63258 57.9362 5.9876 58.0335 6.3749C58.2714 7.28935 57.947 8.04244 57.5685 8.79552C56.5305 10.8288 54.8329 12.1951 52.8757 13.2925C52.5405 13.4754 52.4107 13.2817 52.2485 13.0558V13.045Z" fill="black"/>
<path d="M81.077 13.5399C81.3689 13.4323 81.4554 13.4108 81.4987 13.5399C81.4987 13.3893 81.4987 13.2386 81.4987 13.0773C81.423 13.1633 81.3257 13.2171 81.1959 13.2602C80.8499 13.3785 80.5039 13.5076 80.147 13.6152C79.6604 13.7658 79.1522 13.7766 78.644 13.7443C78.3953 13.7228 78.3521 13.6259 78.471 13.4108C78.6548 13.0773 78.8387 12.7545 79.0117 12.421C80.0605 10.3554 80.6769 8.18224 80.7634 5.85845C80.8066 4.70731 80.7201 3.56693 80.3417 2.45883C79.4226 -0.187715 76.503 -0.467431 74.8378 0.952664C74.1891 1.5121 73.6592 2.15759 73.1726 2.85688C72.2752 4.14788 71.6696 5.57873 71.1073 7.02034C71.0749 7.11717 71.0749 7.23551 70.9235 7.27854C70.9235 6.95579 70.9451 6.65456 70.956 6.34257C70.956 6.19195 70.9343 6.06285 70.7938 5.96603C70.3288 5.67556 69.853 5.82617 69.6908 6.34257C69.1502 8.03162 68.6852 9.73143 68.296 11.4635C68.177 12.0014 68.1338 12.5501 67.9283 13.0557C67.2795 14.6157 66.5118 16.1219 65.5062 17.4989C64.4357 18.9513 63.1057 20.0379 61.3432 20.565C59.7753 21.0276 58.3372 20.8017 57.0396 19.812C55.5474 18.6716 54.7472 17.1762 53.7308 15.4764C53.4064 14.9277 53.3091 14.7125 53.1037 14.3467C52.8117 14.5834 52.1845 14.1423 51.8385 14.2499C52.2602 15.0675 52.6603 15.8959 53.1577 16.6813C53.9903 18.0153 54.9311 19.2633 56.2827 20.1347C57.5154 20.9308 58.8454 21.3611 60.3268 21.232C62.2515 21.0707 63.841 20.21 65.1494 18.8222C66.1117 17.8002 66.8362 16.606 67.485 15.3688C67.5282 15.2827 67.5499 15.1644 67.6796 15.1321C67.7553 15.2074 67.7121 15.2935 67.7121 15.358C67.6255 16.3478 67.6147 17.3268 67.6256 18.3166C67.658 20.565 67.9391 22.7705 68.5663 24.9329C68.6095 25.0728 68.6528 25.2126 68.7393 25.331C68.8799 25.5246 69.2151 25.6322 69.4421 25.5569C69.7017 25.4601 69.626 25.2449 69.6151 25.0512C69.5935 24.5886 69.5503 24.1153 69.5286 23.6527C69.4205 21.146 69.6151 18.6501 69.9179 16.1541C69.9287 16.025 69.9179 15.8744 70.0152 15.7453C70.0369 15.7884 70.0477 15.8099 70.0585 15.8314C70.0693 15.8637 70.0801 15.8959 70.0909 15.9282C70.2856 16.8211 70.8911 17.3053 71.7453 17.4989C72.7185 17.7141 73.67 17.585 74.5675 17.1654C76.0165 16.4984 77.087 15.3903 78.0061 14.1208C78.1466 13.9272 78.298 13.8411 78.5467 13.8626C79.4226 13.9594 80.266 13.7981 81.0986 13.5076L81.077 13.5399ZM76.8491 14.024C76.1678 15.0568 75.3677 15.9605 74.308 16.6275C73.843 16.9287 73.3348 17.1439 72.7942 17.2407C72.3725 17.316 71.9508 17.3268 71.5399 17.1654C70.5126 16.7351 70.2423 15.3903 71.0208 14.5511C71.5507 13.981 72.2535 13.7766 72.9888 13.6152C73.4105 13.5291 73.843 13.4968 74.2756 13.4753C75.1082 13.4215 75.93 13.5721 76.7517 13.6797C76.9572 13.7012 76.9896 13.8088 76.8491 14.0348V14.024ZM77.3465 13.1203C77.1518 13.4968 77.1086 13.5184 76.6869 13.443C75.5948 13.2386 74.4918 13.1311 73.3781 13.2709C72.8807 13.3355 72.3833 13.4215 71.8967 13.5937C71.0641 13.8734 70.4045 14.3467 70.0693 15.2074C70.0693 14.7448 70.1666 14.3145 70.2423 13.8734C70.8046 10.8826 71.7129 8.01011 73.0969 5.29902C73.7565 4.00802 74.5026 2.77082 75.5407 1.73802C75.9516 1.33996 76.4057 1.00646 76.968 0.834323C77.433 0.683707 77.8222 0.79129 78.1358 1.15707C78.6981 1.80257 78.9684 2.57717 79.0982 3.40556C79.4118 5.46039 79.2171 7.48295 78.6981 9.48399C78.3737 10.7427 77.952 11.9799 77.3357 13.1311L77.3465 13.1203Z" fill="black"/>
<path d="M86.5694 15.6378C86.7208 15.2827 86.9154 14.9062 87.5534 13.8949C87.7804 13.5614 88.0183 13.2387 88.2454 12.959C88.5698 12.5717 88.9158 12.3457 89.1429 12.2059C89.251 12.1413 89.3267 12.109 89.3483 12.0983C89.37 12.0768 89.4348 12.066 89.5213 12.0445C89.6835 12.023 89.7484 11.9154 89.716 11.7433C89.6943 11.6249 89.6295 11.5496 89.5213 11.5066C89.424 11.4635 89.2726 11.4098 89.0564 11.3452C88.8401 11.2807 88.7104 11.2591 88.6455 11.2699C88.4076 11.3129 88.1589 11.4851 87.8886 11.7971C87.6182 12.109 87.3371 12.4963 87.056 12.959C86.7748 13.4216 86.5045 13.9057 86.245 14.4113C85.9855 14.917 85.7692 15.3903 85.5854 15.8314C85.4016 16.2725 85.2718 16.6168 85.1961 16.875C85.1961 16.918 85.1637 17.0256 85.1096 17.1762C85.0556 17.3376 85.0447 17.499 85.0772 17.6496C85.0988 17.7464 85.1312 17.8325 85.1961 17.897C85.261 17.9616 85.3475 17.9831 85.4664 17.9616L85.5746 17.94C85.6935 17.897 85.7368 17.8109 85.78 17.7464C85.78 17.7464 85.8557 17.6281 85.9422 17.4559C86.0287 17.2838 86.0828 17.2085 86.1693 17.0794C86.2342 16.9826 86.3315 16.8104 86.3747 16.7566C86.3964 16.3155 86.418 16.0358 86.5477 15.627L86.5694 15.6378Z" fill="black"/>
<path d="M94.4845 17.4021L93.9763 16.9717C93.8249 16.9932 93.6951 17.0148 93.5654 17.004C93.3275 16.9932 93.1329 16.8964 92.9815 16.7028C92.8301 16.5199 92.7328 16.1541 92.7003 15.5947C92.7003 15.4763 92.6895 15.3472 92.6895 15.2181C92.6895 15.089 92.6787 14.9492 92.6571 14.8201C92.6354 14.4758 92.5489 14.1315 92.4192 13.7873C92.2894 13.443 91.9975 13.2494 91.5325 13.2278C91.4028 13.2278 91.2514 13.2278 91.1 13.2601C90.9378 13.2924 90.7756 13.3354 90.5918 13.4C90.1917 13.5398 89.7916 13.6689 89.4023 13.8518C88.9915 14.0455 88.6022 14.2929 88.2129 14.5296C87.7371 14.8201 87.2722 15.1213 86.818 15.4548C86.591 15.6162 86.3639 15.7883 86.1476 15.9604C85.9746 16.1003 85.7043 16.2724 85.5853 16.4553C85.5853 16.4661 85.5745 16.4768 85.5637 16.4876C85.4772 16.6275 85.434 16.7888 85.4231 16.9502C85.4231 17.0578 85.434 17.1439 85.488 17.2192C85.5313 17.2945 85.6178 17.3375 85.7367 17.3483H85.8449C85.9097 17.316 85.8881 17.5419 85.953 17.4774L86.3206 16.9502C86.472 16.7458 86.5369 16.6813 86.6342 16.5737C86.7315 16.4661 86.8721 16.3262 86.9586 16.2509C87.2073 16.0573 87.4344 15.8206 87.6831 15.6377C87.9534 15.4333 88.2454 15.2396 88.5265 15.0568C88.8833 14.8308 89.2618 14.6264 89.651 14.4435C90.0187 14.2606 90.3972 14.0562 90.8189 14.0777C91.0892 14.0885 91.273 14.2606 91.392 14.5941C91.4136 14.6695 91.446 14.7555 91.4676 14.8416C91.4893 14.9277 91.5109 15.0245 91.5217 15.1321C91.5758 15.4763 91.6406 15.8421 91.6947 16.2402C91.7596 16.6382 91.8893 16.9717 92.1056 17.2622C92.3219 17.5527 92.6787 17.7033 93.1653 17.7248C93.6519 17.7463 94.1601 17.671 94.6899 17.4881C94.6142 17.4451 94.5385 17.4236 94.4737 17.3805L94.4845 17.4021Z" fill="black"/>
<path d="M82.4177 17.6173C82.0176 17.7248 81.6284 17.7464 81.2715 17.6818C80.9039 17.6173 80.6552 17.3591 80.5363 16.918C80.4173 16.4769 80.4065 16.0465 80.5038 15.5839C80.6119 15.1213 80.7633 14.691 80.958 14.2929C81.1634 13.8949 81.3364 13.5721 81.4878 13.3247C81.4662 13.3247 81.4554 13.2817 81.4337 13.2279C81.4013 13.1095 81.4229 12.9912 81.4878 12.8406C81.5311 12.7222 81.6067 12.5931 81.7149 12.4425C81.823 12.3027 81.9528 12.1736 82.1041 12.066C82.1798 12.0122 82.2663 11.9799 82.3528 11.9476C82.5259 11.9046 82.7205 11.8831 82.9368 11.9154C83.153 11.9369 83.2828 12.0337 83.3368 12.2058C83.3693 12.3027 83.3585 12.4102 83.3044 12.5178C83.2503 12.6254 83.2071 12.7007 83.1638 12.7437C82.98 12.9804 82.7421 13.3247 82.4502 13.7981C82.1582 14.2607 81.9203 14.7018 81.7365 15.0998C81.4121 15.8852 81.304 16.4338 81.3905 16.7673C81.4337 16.9072 81.5202 17.0148 81.6716 17.0686C81.823 17.1331 82.0501 17.1116 82.3637 17.0255C82.8611 16.8857 83.3368 16.6598 83.791 16.3585C84.2451 16.0573 84.6344 15.7453 84.9912 15.4118C85.2832 15.1428 85.5535 14.8631 85.8022 14.5619C86.0509 14.2607 86.2888 13.9594 86.5267 13.6474C86.7537 13.3247 86.9916 12.9912 87.2295 12.6577C87.4674 12.3242 87.7053 11.9799 87.954 11.6356C88.0297 11.5818 88.0838 11.5496 88.1162 11.5496C88.2135 11.5173 88.2784 11.5496 88.3108 11.6572C88.3325 11.7325 88.3108 11.8293 88.2784 11.9476C88.2243 12.0875 88.0946 12.3242 87.8999 12.6577C87.7053 12.9912 87.4458 13.3677 87.143 13.7981C86.8403 14.2284 86.4942 14.6695 86.0942 15.1213C85.6941 15.5732 85.2724 15.982 84.8182 16.3585C84.5803 16.5629 84.2343 16.7889 83.7802 17.0471C83.326 17.3053 82.8719 17.4989 82.4177 17.628V17.6173ZM83.445 10.3446C83.272 10.3877 83.1422 10.3769 83.0449 10.3124C82.9476 10.2371 82.8827 10.1295 82.8394 9.98962C82.7962 9.82825 82.7854 9.68839 82.807 9.55929C82.807 9.43019 82.9368 9.29033 83.1746 9.13972C83.4125 8.97834 83.6612 8.83848 83.9532 8.72014C84.2343 8.59104 84.4506 8.51573 84.6128 8.46194C84.775 8.40815 84.8615 8.42967 84.8831 8.50498C84.8831 8.53725 84.8831 8.56953 84.8831 8.6018C84.8723 8.63408 84.8615 8.66635 84.8507 8.67711C84.829 8.69863 84.7966 8.7309 84.7533 8.77393C84.7101 8.81697 84.656 8.86 84.5911 8.91379C84.5046 8.9891 84.4073 9.06441 84.2992 9.17199C84.1911 9.27957 84.137 9.36564 84.1154 9.46246C84.0937 9.66687 84.0289 9.86052 83.9099 10.0327C83.791 10.2048 83.6396 10.3124 83.4666 10.3662L83.445 10.3446Z" fill="black"/>
<path d="M101.091 13.4754C101.015 13.4754 100.918 13.4969 100.788 13.5722L99.2852 14.5189C98.6364 14.9385 97.966 15.3366 97.2632 15.7131C96.5603 16.0897 95.8899 16.3909 95.2519 16.6168C94.9384 16.7351 94.6572 16.8105 94.3977 16.8642C94.2463 16.8965 94.095 16.9718 93.5759 16.9933C93.284 17.187 93.3921 17.2515 93.0461 17.3914C93.0028 17.4344 92.9704 17.4882 92.9163 17.5313C93.0245 17.5743 93.1326 17.6066 93.2732 17.6173C93.7598 17.6711 94.2788 17.6173 94.8411 17.4667C95.3925 17.3161 95.9656 17.1009 96.5387 16.832C97.1118 16.563 97.6741 16.2618 98.2147 15.9498C98.7554 15.627 99.2311 15.3366 99.6529 15.0676C100.01 14.8524 100.302 14.6373 100.529 14.4329C100.767 14.2177 100.94 14.0456 101.059 13.9165C101.113 13.8519 101.145 13.7766 101.167 13.7121C101.188 13.6475 101.199 13.6045 101.21 13.5722V13.5292C101.21 13.5292 101.156 13.4754 101.091 13.4646V13.4754Z" fill="black"/>
<path d="M100.464 18.1445C100.897 18.166 101.362 18.0477 101.87 17.7895C102.378 17.5313 102.865 17.2085 103.319 16.8427C103.784 16.4662 104.162 16.1435 104.487 15.8637C104.671 15.6916 104.844 15.541 105.006 15.3904C105.168 15.2398 105.298 15.1214 105.406 15.0246C105.428 14.9816 105.471 14.9278 105.546 14.8525C105.622 15.0031 105.655 15.229 105.644 15.5302C105.622 15.939 105.514 16.4232 105.309 16.9826C105.136 17.456 104.93 17.9186 104.681 18.3812C105.049 18.3812 105.417 18.4135 105.774 18.4672C106.022 17.9616 106.26 17.4452 106.466 16.9073C106.714 16.2941 106.844 15.7346 106.876 15.229C106.898 14.8417 106.833 14.519 106.693 14.2392C106.541 13.9595 106.26 13.8089 105.828 13.7874C105.665 13.7874 105.525 13.8089 105.417 13.8627C105.309 13.9272 105.233 13.9918 105.179 14.0779C105.146 14.1639 105.125 14.25 105.125 14.3145C105.125 14.3791 105.125 14.4436 105.136 14.4759C104.714 14.7879 104.292 15.1214 103.86 15.4549C103.427 15.7884 103.016 16.1112 102.605 16.4124C102.465 16.5092 102.248 16.6599 101.967 16.8535C101.675 17.0472 101.383 17.23 101.081 17.3914C100.778 17.5528 100.508 17.6281 100.291 17.6173C100.205 17.6173 100.118 17.5743 100.043 17.499C99.9669 17.4237 99.9345 17.2838 99.9453 17.0579V16.9503C99.9453 16.9503 99.9669 16.8535 99.9886 16.7997C100.053 16.4232 100.281 15.9821 100.659 15.5087C101.037 15.0246 101.492 14.5727 102.011 14.1317C102.53 13.6906 103.081 13.3355 103.633 13.0558C104.195 12.7761 104.692 12.647 105.114 12.6793C105.46 12.7008 105.665 12.8191 105.741 13.0236C105.817 13.228 105.849 13.3893 105.849 13.4969C105.838 13.6906 105.903 13.7874 106.055 13.7981C106.087 13.7981 106.13 13.7981 106.195 13.7659C106.336 13.7013 106.412 13.5615 106.422 13.3355V13.271C106.401 12.7761 106.184 12.4318 105.784 12.2274C105.384 12.023 104.984 11.9047 104.584 11.8832C104.389 11.8724 104.216 11.8832 104.054 11.8939C103.892 11.9154 103.751 11.9477 103.611 11.98C103.189 12.1091 102.724 12.3243 102.216 12.6578C101.708 12.9805 101.232 13.3786 100.789 13.8304C100.335 14.2823 99.9561 14.7556 99.6534 15.2398C99.3506 15.7239 99.1884 16.1865 99.156 16.6383C99.1343 16.9503 99.1992 17.23 99.3506 17.499C99.5993 17.9186 99.9561 18.1337 100.454 18.166L100.464 18.1445Z" fill="black"/>
<path d="M125.745 19.5861C125.529 19.6937 125.302 19.7797 125.096 19.9196C123.55 20.9416 121.982 21.8668 120.025 21.7915C119.063 21.7593 118.089 21.8668 117.127 21.8023C116.186 21.7377 115.246 21.5764 114.326 21.372C112.845 21.0492 111.385 20.6189 109.893 20.3069C108.574 20.0272 107.233 19.8335 105.914 19.5968C105.73 19.5646 105.557 19.5 105.352 19.457C105.741 18.5963 106.098 17.7894 106.455 16.9826C106.455 16.9718 106.455 16.9611 106.465 16.9503C106.4 16.9503 106.346 16.9503 106.282 16.9503C105.946 16.918 105.633 16.8642 105.33 16.7997C105.265 16.9288 105.189 17.0579 105.125 17.1762C104.822 17.854 104.541 18.5425 104.216 19.2095C104.141 19.3602 103.903 19.4893 103.719 19.5215C102.897 19.6614 102.064 19.7044 101.253 19.8873C98.6259 20.4575 96.2795 21.5226 94.6035 23.7495C93.8141 24.8038 93.5546 25.9442 93.9871 27.2029C94.2466 27.956 94.7657 28.5155 95.5226 28.7199C96.3876 28.9458 97.2635 28.8059 98.1069 28.4294C99.6856 27.7086 100.907 26.5359 101.881 25.1696C102.973 23.6312 103.913 21.9852 104.897 20.3607C105.103 20.0272 105.308 19.8335 105.73 19.9088C107.071 20.1347 108.412 20.2961 109.72 20.6942C110.747 21.0169 111.807 21.2321 112.856 21.4795C113.634 21.6624 114.413 21.8561 115.191 21.9529C116.651 22.1465 118.111 22.2541 119.592 22.1465C120.36 22.0928 121.139 22.039 121.896 21.8883C123.29 21.6086 124.437 20.791 125.594 20.0056C125.702 19.9303 125.767 19.8012 125.864 19.7044L125.788 19.5968L125.745 19.5861ZM103.243 21.1675C102.562 22.4047 101.924 23.685 101.156 24.8792C100.324 26.1809 99.2855 27.3428 97.9014 28.0851C97.4365 28.3433 96.8742 28.5047 96.3444 28.537C95.4253 28.5908 94.7116 27.9883 94.3764 27.0631C93.9331 25.8366 94.3007 24.7716 95.0468 23.8141C96.5931 21.8346 98.7124 20.791 101.124 20.2638C101.848 20.1025 102.573 19.9734 103.297 19.855C103.459 19.8228 103.632 19.8765 103.892 19.9088C103.654 20.3822 103.47 20.791 103.254 21.1783L103.243 21.1675Z" fill="black"/>
<path d="M126.805 17.2623C126.784 17.0471 126.708 16.8212 126.459 16.7782C126.2 16.7352 126.016 16.8965 125.875 17.0902C125.713 17.3053 125.929 17.4129 126.016 17.5528C126.038 17.5958 126.081 17.6388 126.113 17.6711C126.394 17.9939 126.438 18.3597 126.243 18.7362C126.102 19.0052 125.929 19.2418 125.702 19.4462C125.367 19.7367 125.021 19.9949 124.643 20.2101C124.675 20.3284 124.686 20.4575 124.708 20.5866C125.129 20.3499 125.54 20.0702 125.919 19.7475C126.708 19.0589 126.913 18.2198 126.816 17.2408L126.805 17.2623Z" fill="black"/>
<path d="M9.54887 26.6004C9.02984 26.6004 8.48919 26.5359 7.94854 26.396C7.40789 26.2669 6.95374 26.041 6.5861 25.7398C6.21845 25.4385 6.03463 25.019 6.03463 24.481C6.03463 24.4057 6.03463 24.3304 6.04544 24.2659C6.04544 24.2013 6.06707 24.126 6.07788 24.0507C6.25089 23.1147 6.78073 22.2326 7.6674 21.4149C8.55407 20.5973 9.62456 19.8442 10.8897 19.1772C11.7223 18.7361 12.663 18.295 13.7227 17.8754C14.7824 17.4559 15.8745 17.0578 17.0315 16.7028C18.1885 16.3478 19.3563 16.0465 20.5349 15.8099C21.7135 15.5732 22.8489 15.4226 23.9302 15.3688C24.1032 15.1213 24.2762 14.8631 24.4492 14.6049C24.6114 14.3467 24.7628 14.0993 24.8926 13.8626C25.4548 12.8944 25.9522 11.9261 26.3523 10.9471C26.7632 9.9681 26.9687 9.09668 26.9687 8.3436C26.9687 7.73038 26.774 7.25701 26.3739 6.91275C25.9739 6.56848 25.4765 6.29952 24.8709 6.13815C24.2654 5.96602 23.6382 5.85843 22.9786 5.80464C22.3191 5.75085 21.7351 5.72933 21.2161 5.72933C19.9294 5.72933 18.5453 5.82616 17.0639 6.03057C15.5825 6.23497 14.0903 6.52545 12.5981 6.90199C11.1059 7.27853 9.67862 7.71962 8.32699 8.22526C6.96455 8.7309 5.76431 9.29033 4.70463 9.89279C3.64495 10.4953 2.81235 11.1515 2.18519 11.8293C1.55804 12.5071 1.25527 13.2171 1.25527 13.9487C1.25527 14.4436 1.40666 14.8416 1.70942 15.1644C2.01218 15.4871 2.41227 15.713 2.90967 15.8636C3.40707 16.0143 3.90446 16.0896 4.4343 16.0896C4.72626 16.0896 5.01821 16.0681 5.28853 16.025C5.33178 16.0143 5.37504 16.0035 5.41829 16.0035H5.54805C5.62374 16.0035 5.69943 16.0035 5.77512 16.0143C5.85081 16.0143 5.91569 16.0358 5.98057 16.0465C6.15357 16.0896 6.20764 16.1756 6.11032 16.294C6.04544 16.3585 5.9265 16.4123 5.73187 16.4769C5.22365 16.606 4.69382 16.6813 4.14235 16.6813C3.46113 16.6813 2.81235 16.5737 2.20682 16.3585C1.60129 16.1434 1.1147 15.8206 0.725434 15.3903C0.346978 14.96 0.152344 14.4436 0.152344 13.8303C0.152344 12.9589 0.401043 12.152 0.909256 11.4205C1.41747 10.6889 2.1095 10.0219 2.99617 9.41943C3.88284 8.81696 4.89926 8.27905 6.04544 7.80568C7.19163 7.33232 8.42431 6.9235 9.72187 6.56848C11.0303 6.22422 12.3386 5.93374 13.6686 5.70782C14.9986 5.48189 16.2854 5.32052 17.5289 5.21294C18.7724 5.10535 19.9077 5.0408 20.935 5.0408C21.8108 5.0408 22.6651 5.09459 23.4869 5.21294C24.3086 5.33128 25.0439 5.53568 25.6927 5.8154C26.3415 6.09512 26.8497 6.47166 27.2282 6.93426C27.5958 7.39687 27.7904 7.98858 27.7904 8.67711C27.7904 9.18275 27.7039 9.76369 27.5417 10.4307C27.3796 11.0977 27.1525 11.7863 26.8713 12.4748C26.5902 13.1633 26.2658 13.8303 25.909 14.4328C25.8225 14.5834 25.7252 14.734 25.6387 14.8954C25.5521 15.0568 25.4548 15.2181 25.3467 15.358C25.5738 15.358 25.8549 15.3795 26.2117 15.4118C26.5578 15.4441 26.9254 15.4979 27.293 15.5624C27.6607 15.627 27.9959 15.7345 28.2878 15.8636C28.5798 15.9927 28.7744 16.1649 28.8826 16.38C28.8934 16.3908 28.9042 16.4231 28.9042 16.4661C28.9042 16.5307 28.8826 16.5737 28.8501 16.5952C28.8177 16.6275 28.7744 16.649 28.7528 16.6813C28.742 16.692 28.6879 16.7028 28.623 16.7028C28.5149 16.7028 28.4609 16.6705 28.4392 16.5952C28.3311 16.4123 28.0608 16.2832 27.6066 16.1864C27.1633 16.0896 26.6551 16.0143 26.082 15.9712C25.8874 15.9605 25.6927 15.9497 25.5089 15.9497H24.9142C24.1789 16.9825 23.3571 18.0261 22.4272 19.0589C21.5081 20.0917 20.5025 21.0599 19.4428 21.9636C18.3723 22.8673 17.2802 23.6634 16.1556 24.3519C15.0311 25.0405 13.9065 25.5891 12.782 25.9872C11.6574 26.3853 10.5653 26.5897 9.50561 26.5897L9.54887 26.6004ZM9.23529 25.998C10.2085 25.998 11.2033 25.8043 12.2413 25.4063C13.2794 25.0082 14.3174 24.481 15.3663 23.8033C16.4043 23.1255 17.4208 22.3617 18.4047 21.5118C19.3887 20.6618 20.3078 19.7581 21.1621 18.8222C22.0163 17.8862 22.784 16.961 23.4544 16.0573C21.9622 16.1864 20.4268 16.4769 18.8589 16.9287C17.2802 17.3698 15.7555 17.9185 14.2742 18.5747C12.7928 19.231 11.4195 19.941 10.1652 20.7156C8.98659 21.4472 8.14317 22.125 7.62415 22.7705C7.10512 23.416 6.85642 23.9754 6.85642 24.4488C6.85642 24.8899 7.06187 25.2664 7.48358 25.5569C7.90529 25.8473 8.47838 25.998 9.22448 25.998H9.23529Z" fill="black"/>
</g>
<defs>
<clipPath id="clip0_675_7418">
<rect width="127" height="29" fill="white"/>
</clipPath>
</defs>
</svg>
