<?xml version="1.0" encoding="utf-8"?>
<!-- Generator: Adobe Illustrator 26.0.0, SVG Export Plug-In . SVG Version: 6.00 Build 0)  -->
<svg version="1.1" id="Layer_1" xmlns="http://www.w3.org/2000/svg" xmlns:xlink="http://www.w3.org/1999/xlink" x="0px" y="0px"
	 viewBox="0 0 383.9 447.8" style="enable-background:new 0 0 383.9 447.8;" xml:space="preserve">
<style type="text/css">
	.st0{fill:#FFFFFF;}
</style>
<path class="st0" d="M51.2,345.8C23,345.8,0,368.7,0,396.8s23,51,51.2,51h37.2c15.3,0,28.9-6.8,38.3-17.4c0.1-0.1,0.3-0.1,0.4-0.2
	c0.6-0.6,1-1.5,1.5-2.1c1.3-1.6,2.5-3.2,3.5-5c9.5-14.2,14-32.9,14-47.2c0-16.8,0-197.3,0-197.3c0-0.6,0-1.1,0-1.7
	c0-0.5,0-1.1,0-1.6c0.8-14.2,11.2-25.7,25.1-28.9c1.7-0.4,5.4-1.2,5.4-1.2l149.9-28.4c0.7-0.1,1.3-0.2,2-0.3
	c0.8-0.1,1.5-0.1,2.4-0.1c12.1,0,21.1,9.5,21.1,21.2c0,0,0,105.8,0,131.4c0,25.5,2.9,31.9-40.5,31.9h-20.1
	c-28.3,0-51.2,22.9-51.2,51s22.9,51,51.2,51h37.2c18.2,0,34.1-9.4,43.2-23.6c0-0.1,0.1,0,0.2,0c9-12.2,11.9-30.6,11.9-55.3
	c0-24.8,0-302.8,0-302.8c0-11.7-9.9-21.2-22-21.2c-0.7,0-1.4,0.1-2,0.1l-3.1,0.5L139.3,41.8C125.5,45.5,113,58.7,112,73.2
	c0,0.1,0,0.1,0,0.2c0,0.1,0,0.1,0,0.2c0,0,0,236.2,0,250.1s2,22.2-47.7,22.2H51.2V345.8z"/>
</svg>
