<svg width="47" height="50" viewBox="0 0 47 50" fill="none" xmlns="http://www.w3.org/2000/svg">
<path d="M30.3645 16.3966C32.2032 16.3318 33.8475 16.2436 35.496 16.2474C37.4978 16.2411 39.5 16.2093 41.4896 16.4018C42.1034 16.4618 42.6595 17.1588 43.2493 17.5654C42.6615 17.9803 42.1166 18.7121 41.4861 18.7844C37.852 19.2056 34.1931 19.5499 30.5302 19.7768C30.1028 19.7316 29.6753 19.8545 29.3389 20.1193C29.0025 20.3841 28.7837 20.7698 28.7292 21.1943C26.4073 29.0994 24.0241 36.9984 21.6664 44.8979C21.2862 46.2064 20.4703 47.3451 19.3526 48.127C18.2348 48.9089 16.8817 49.2875 15.5154 49.2006C12.5714 48.8675 9.74508 47.8445 7.26798 46.2153C4.79089 44.5862 2.73343 42.3973 1.26414 39.8278C-0.422775 37.0223 1.04973 34.1662 4.31711 33.556C8.75398 32.7282 12.3921 34.4501 15.474 37.526C16.4388 38.5843 17.3488 39.691 18.2002 40.8417C19.3045 36.924 20.326 33.0919 21.4801 29.3026C23.6676 22.0333 25.8653 14.7693 28.216 7.55861C28.8615 5.68516 29.8132 3.93214 31.0328 2.37014C31.4106 1.92176 31.8765 1.55516 32.4019 1.2927C32.9274 1.03024 33.5015 0.877349 34.0892 0.843436C37.6313 0.926029 41.1806 1.2945 44.7193 1.70869C45.3482 1.78935 45.9028 2.63937 46.4866 3.13266C45.8824 3.65442 45.3101 4.56442 44.6541 4.63643C41.5639 4.92783 38.4456 4.97393 35.3565 5.1633C34.8903 5.19218 34.1207 5.35945 34.0204 5.65391C32.7364 9.11991 31.6106 12.629 30.3645 16.3966Z" fill="white"/>
</svg>
