<svg width="52" height="54" viewBox="0 0 52 54" fill="none" xmlns="http://www.w3.org/2000/svg">
<path d="M50.0172 1.3499C47.4818 -0.63295 44.1236 -0.170997 41.3825 1.06958C38.1785 2.5126 35.3088 4.84323 33.7351 8.05109C31.8375 11.9234 32.218 16.3303 32.4597 20.5088C32.7203 25.1251 32.986 29.7378 33.2569 34.3472L10.2326 41.9516C10.0321 42.0191 9.82635 42.0865 9.62064 42.1644C8.73608 35.8214 7.84981 29.4766 6.96183 23.1301C10.7867 22.0582 14.2991 20.0711 17.2011 17.3373C20.3536 14.3838 23.6656 7.47491 17.5354 5.61145C12.8606 4.20477 7.14181 7.59949 3.98929 10.8333C0.548767 14.3682 -0.999206 19.4447 0.682483 24.1942C0.699061 24.2324 0.724548 24.2661 0.756781 24.2924C0.789013 24.3186 0.827031 24.3365 0.867615 24.3447C2.23902 34.1517 3.61043 43.9569 4.98184 53.7604C5.12584 54.7986 9.4355 52.1409 9.7235 51.9022C10.7521 51.0509 13.4777 51.3312 14.7994 51.3156C16.6251 51.3156 18.4559 51.3831 20.2816 51.3156C24.3026 51.1195 28.2556 50.1929 31.9506 48.5801C34.666 47.4174 39.1505 45.6422 39.6236 42.2579C39.9013 40.3892 39.4642 38.2558 39.3562 36.3768C39.2225 34.0202 39.0871 31.6636 38.9499 29.307C38.7545 25.8708 38.5436 22.4345 38.3533 18.9983C43.4961 18.2041 48.7212 14.607 50.9377 10.1741C52.3057 7.40226 52.6914 3.44695 50.0172 1.3499ZM31.8992 46.3429C27.2244 47.9001 22.5856 47.3811 17.7822 47.6406C15.32 47.7728 12.9025 48.3586 10.6492 49.3691L9.95493 44.4016L32.4237 36.9893C32.7426 36.8855 33.0717 36.7661 33.406 36.6311C33.5243 38.6607 33.6477 40.6954 33.7608 42.725C33.8714 43.6108 33.8714 44.5072 33.7608 45.393C33.7248 45.5955 33.7608 45.6837 33.8123 45.7045C33.1882 45.957 32.5493 46.1702 31.8992 46.3429Z" fill="white"/>
</svg>
