<?xml version="1.0" encoding="utf-8"?>
<!-- Generator: Adobe Illustrator 26.0.0, SVG Export Plug-In . SVG Version: 6.00 Build 0)  -->
<svg version="1.1" id="圖層_1" xmlns="http://www.w3.org/2000/svg" xmlns:xlink="http://www.w3.org/1999/xlink" x="0px" y="0px"
	 viewBox="0 0 256 448" style="enable-background:new 0 0 256 448;" xml:space="preserve">
<style type="text/css">
	.st0{fill:#FFFFFF;}
</style>
<path class="st0" d="M253.5,0C235.4,4.3,127,31.1,97.5,38.2c-0.9,0.2-1.5,1-1.5,1.9v281.1c0,0.8-0.5,1.6-1.3,1.9L54,337.9
	c-29.8,10.7-54,18.9-54,59.1c0,32.5,23.5,47.2,37.9,50c5,0.8,10,1.2,15,1.1c8.9,0,31-3.6,47.5-14.2C128,416,128,416,128,383.9V137.2
	c0-0.9,0.6-1.7,1.5-1.9l125-33c0.9-0.2,1.5-1,1.5-1.9V2c0-1.1-0.9-2-2-2C253.8,0,253.7,0,253.5,0z"/>
</svg>
